<svg xmlns="http://www.w3.org/2000/svg" version="1.1" xmlns:xlink="http://www.w3.org/1999/xlink" xmlns:svgjs="http://svgjs.dev/svgjs" width="100%" height="100%" viewBox="0 0 1000 600"><rect width="1000" height="600" x="0" y="0" fill="#427964"/><g><rect width="333.3333333333333" height="333.3333333333333" rx="13.333333333333334" ry="13.333333333333334" y="190.55872970623636" fill="green" transform="matrix(0.7425602124563287,0,0,0.7425602124563287,0,34.73862606946524)" x="168.3364715576172"/><path d="M226.29390419005443 428.7743197583442L192.65260263204095 285.67650553823205L209.4732534110477 285.67650553823205L229.71781694959375 382.3341062182433Q233.35912099545305 402.79606104310926 234.69064262416276 411.57323422827756L234.69064262416276 411.57323422827756L235.83194687734257 411.57323422827756Q240.61455517638166 388.638453521522 241.94607680509137 382.3341062182433L241.94607680509137 382.3341062182433L265.0710748873769 285.67650553823205L281.5112909153237 285.67650553823205L305.01672374866905 382.3341062182433Q307.6797670060886 394.37214869821094 311.1308536764179 411.57323422827756L311.1308536764179 411.57323422827756L311.89172317853775 411.57323422827756Q312.0819405540677 409.67106047297796 317.05476622863677 382.3341062182433L317.05476622863677 382.3341062182433L337.4895471427128 285.67650553823205L354.3101979217195 285.67650553823205L320.66889636370604 428.7743197583442L302.7069413315196 428.7743197583442L279.6091171600241 333.23084942072285Q274.44607410992506 308.20367758313773 273.8754219833352 305.1601995746583L273.8754219833352 305.1601995746583L273.1145524812153 305.1601995746583Q272.1362916927755 310.3232426247573 269.85368318641594 320.4319374386354Q267.57107468005637 330.5678061633033 267.0004225534665 333.23084942072285L267.0004225534665 333.23084942072285L244.25585922224093 428.7743197583442L226.29390419005443 428.7743197583442ZM366.15802302615725 357.30693438065816L366.15802302615725 357.30693438065816Q366.15802302615725 322.36128510472497 383.1688911806939 302.27976503091884Q400.1525854244406 282.2254188679027 427.29932230364534 282.2254188679027L427.29932230364534 282.2254188679027Q444.092799171862 282.2254188679027 455.8591025439297 291.49172244729095Q467.5982320052075 300.75802602667915 473.52214455742626 313.5569380087667L473.52214455742626 313.5569380087667L460.5330151998088 318.1493289322758Q447.7341032177213 295.2145482255202 426.9188875525854 295.2145482255202L426.9188875525854 295.2145482255202Q406.2667153521894 295.2145482255202 394.03845549669177 312.1167207368969Q381.8101956411941 329.0460671590637 381.8101956411941 357.30693438065816L381.8101956411941 357.30693438065816Q381.8101956411941 385.9754102641026 394.22867287222175 402.4971480244193Q406.6471501032493 419.0188857847361 426.9188875525854 419.0188857847361L426.9188875525854 419.0188857847361Q439.71779953467285 419.0188857847361 449.2558422219611 411.87214724696753Q458.8210588200392 404.69823479840886 463.6036671190783 394.18193132268095L463.6036671190783 394.18193132268095L477.35366597881557 398.5841048706601Q470.85910130000684 412.52432110592736 458.4406240689792 422.36127681190544Q446.0221468379517 432.2254064286735 427.29932230364534 432.2254064286735L427.29932230364534 432.2254064286735Q400.34280279997057 432.2254064286735 383.2504129130639 412.2525819980274Q366.15802302615725 392.27975756738135 366.15802302615725 357.30693438065816Z " fill="white" transform="matrix(0.7425602124563287,0,0,0.7425602124563287,0,34.73862606946524)"/><path d="M600.6623295999323 428.69304203696163L585.0031429601003 428.69304203696163L585.0031429601003 282.2254099848209L602.9986913721275 282.2254099848209L656.9853366082089 375.70769470324944L674.5914913915369 406.58104669297154L675.7596722776345 406.58104669297154Q673.3954966748179 388.4186152972161 673.3954966748179 365.1384390671284L673.3954966748179 365.1384390671284L673.3954966748179 282.2254099848209L689.0546833146499 282.2254099848209L689.0546833146499 428.69304203696163L671.0591349026228 428.69304203696163L616.8777928521916 334.62666687548426L599.4941487138346 304.50428831253924L598.6875476258149 304.50428831253924Q600.6623295999323 324.0574112393632 600.6623295999323 345.7800129546541L600.6623295999323 345.7800129546541L600.6623295999323 428.69304203696163ZM732.8614665433096 401.71362633423155L732.8614665433096 401.71362633423155Q732.8614665433096 409.1399191101377 739.119578433118 414.3132916057127Q745.3776903229266 419.51447793190914 756.3363395877468 419.51447793190914L756.3363395877468 419.51447793190914Q770.2154410678111 419.51447793190914 780.0893509383978 410.50279681058487Q789.9632608089846 401.518929519882 789.9632608089846 387.61201420919633L789.9632608089846 387.61201420919633L789.9632608089846 372.95412547173373Q781.3687871469809 375.0957904295793 762.5944514775554 378.0440564754447L762.5944514775554 378.0440564754447Q747.3246584664225 380.7698118763391 740.0930625048661 386.44383332309883Q732.8614665433096 392.11785476985847 732.8614665433096 401.71362633423155ZM717.5916735321767 402.88180722032916L717.5916735321767 402.88180722032916Q717.5916735321767 373.53821591478254 762.9838451062545 366.50131676757564L762.9838451062545 366.50131676757564Q783.3157552904769 363.19147092363244 789.9632608089846 361.02199213516553L789.9632608089846 361.02199213516553L789.9632608089846 354.9585770597066Q789.9632608089846 345.1959225116053 782.9263616617777 338.7431138074471Q775.8894625145708 332.29030510328903 762.9838451062545 332.29030510328903L762.9838451062545 332.29030510328903Q753.5827703562311 332.29030510328903 744.8770413717419 336.6848903414657Q736.1713123872527 341.07947557964235 730.1078973117937 348.5057683555485L730.1078973117937 348.5057683555485L720.3452427636926 340.300688322244Q728.1609291682978 331.2890072009196 739.2030199249822 325.6427995847813Q750.272924512288 319.96877813802155 762.5944514775554 319.96877813802155L762.5944514775554 319.96877813802155Q804.8158463607969 319.96877813802155 804.8158463607969 361.21668894951506L804.8158463607969 361.21668894951506L804.8158463607969 428.69304203696163L790.3526544376838 428.69304203696163L790.3526544376838 411.47628088233284Q787.2375054080902 419.9038715606083 777.4470370293676 426.0507281279314Q767.6565686506449 432.2253985258758 754.3615576136294 432.2253985258758L754.3615576136294 432.2253985258758Q736.9779134752725 432.2253985258758 727.270886588414 423.99250466194985Q717.5916735321767 415.78742462864534 717.5916735321767 402.88180722032916ZM841.7804272565992 336.18424139028104L823.3954852158728 336.18424139028104L823.3954852158728 323.4733207963144L841.7804272565992 323.4733207963144L841.7804272565992 289.8463995750766L857.0502202677319 289.8463995750766L857.0502202677319 323.4733207963144L884.8084232278604 323.4733207963144L884.8084232278604 336.18424139028104L857.0502202677319 336.18424139028104L857.0502202677319 397.7918762166182Q857.0502202677319 407.5823445953408 860.7494597403743 411.6709776966825Q864.4765130436381 415.78742462864534 872.6815930769426 415.78742462864534L872.6815930769426 415.78742462864534L884.8084232278604 415.78742462864534L884.8084232278604 428.69304203696163L870.7346249334466 428.69304203696163Q841.7804272565992 428.69304203696163 841.7804272565992 399.15475391706536L841.7804272565992 399.15475391706536L841.7804272565992 336.18424139028104ZM905.3350302264323 391.7284611411593L905.3350302264323 391.7284611411593L905.3350302264323 323.4733207963144L920.6048232375651 323.4733207963144L920.6048232375651 388.61331211156573Q920.6048232375651 419.51447793190914 943.300909024604 419.51447793190914L943.300909024604 419.51447793190914Q957.1800105046683 419.51447793190914 964.4950479580889 408.75052548143844Q971.8378992421308 397.98657303096786 971.8378992421308 383.32868429350526L971.8378992421308 383.32868429350526L971.8378992421308 323.4733207963144L986.690484793943 323.4733207963144L986.690484793943 428.69304203696163L972.2272928708301 428.69304203696163L972.2272928708301 411.6709776966825Q970.6697183560333 418.1237864008406 962.5480798145929 425.16068554804747Q954.4264412731525 432.2253985258758 939.7685525356899 432.2253985258758L939.7685525356899 432.2253985258758Q924.721270169528 432.2253985258758 915.0142432826694 421.9342811959684Q905.3350302264323 411.6709776966825 905.3350302264323 391.7284611411593ZM1033.445534068468 428.69304203696163L1018.1757410573354 428.69304203696163L1018.1757410573354 323.4733207963144L1032.6667468110697 323.4733207963144L1032.6667468110697 338.7431138074471Q1035.7818958406633 331.6784008296189 1043.0134918022197 325.83749639913094Q1050.2729015943978 319.96877813802155 1061.5931306572957 319.96877813802155L1061.5931306572957 319.96877813802155Q1070.0207213355711 319.96877813802155 1076.4735300397292 322.69453353891595L1076.4735300397292 322.69453353891595L1076.4735300397292 336.3789382046307Q1069.4366308925223 333.6531828037363 1061.5931306572957 333.6531828037363L1061.5931306572957 333.6531828037363Q1048.2981196202804 333.6531828037363 1040.8718268443743 343.6105341661871Q1033.445534068468 353.59569935925936 1033.445534068468 370.0336732564898L1033.445534068468 370.0336732564898L1033.445534068468 428.69304203696163ZM1084.4839132586842 375.29048724392896L1084.4839132586842 375.29048724392896Q1084.4839132586842 350.67524714401543 1097.7789242956997 335.32201264101855Q1111.073935332715 319.96877813802155 1132.2124466049572 319.96877813802155L1132.2124466049572 319.96877813802155Q1153.7125376752772 319.96877813802155 1166.0340646405448 334.93261901231926Q1178.3555916058122 349.86864605599567 1178.3555916058122 373.1488222860834L1178.3555916058122 373.1488222860834Q1178.3555916058122 375.9023915175991 1177.9661979771129 380.9645086906887L1177.9661979771129 380.9645086906887L1099.753706269817 380.9645086906887Q1099.753706269817 396.81839214487024 1108.5428767461704 408.16643503838964Q1117.3320472225237 419.51447793190914 1132.9912338623558 419.51447793190914L1132.9912338623558 419.51447793190914Q1143.143282039156 419.51447793190914 1150.9867822743827 414.7026852344119Q1158.8024686789881 409.91870636753606 1163.1136124253007 401.9083231485812L1163.1136124253007 401.9083231485812L1176.019229833617 405.8022594355731Q1171.1239956442555 417.3449991434421 1160.1653463794353 424.7712919193483Q1149.206697114615 432.2253985258758 1132.9912338623558 432.2253985258758L1132.9912338623558 432.2253985258758Q1111.073935332715 432.2253985258758 1097.7789242956997 416.5662118860438Q1084.4839132586842 400.9348390768332 1084.4839132586842 375.29048724392896ZM1100.1430998985163 369.449582813441L1100.1430998985163 369.449582813441L1163.1136124253007 369.449582813441Q1163.1136124253007 353.98509298795864 1154.6860217470253 343.3323958599734Q1146.286244899371 332.6796987319882 1132.2124466049572 332.6796987319882L1132.2124466049572 332.6796987319882Q1117.9161376655725 332.6796987319882 1109.2382225117046 343.6105341661871Q1100.5324935272154 354.56918343100733 1100.1430998985163 369.449582813441Z " fill="black" transform="matrix(0.7425602124563287,0,0,0.7425602124563287,0,34.73862606946524)"/></g></svg>