<?xml version="1.0" standalone="no"?>
<!DOCTYPE svg PUBLIC "-//W3C//DTD SVG 20010904//EN"
 "http://www.w3.org/TR/2001/REC-SVG-20010904/DTD/svg10.dtd">
<svg version="1.0" xmlns="http://www.w3.org/2000/svg"
 width="300.000000pt" height="200.000000pt" viewBox="0 0 300.000000 200.000000"
 preserveAspectRatio="xMidYMid meet">
<metadata>
Created by potrace 1.10, written by Peter Selinger 2001-2011
</metadata>
<g transform="translate(0.000000,200.000000) scale(0.100000,-0.100000)"
fill="#000000" stroke="none">
<path d="M2896 1913 c3 -49 12 -148 20 -222 11 -106 12 -137 2 -150 -7 -9 -39
-47 -71 -84 -42 -48 -57 -71 -49 -79 12 -12 44 19 94 95 31 46 38 51 67 47 11
-1 12 8 7 42 -17 100 -36 276 -36 324 0 71 -10 114 -26 114 -11 0 -13 -17 -8
-87z"/>
<path d="M335 1940 c-3 -5 9 -34 26 -65 24 -44 30 -63 25 -88 -5 -23 0 -46 16
-79 23 -48 32 -56 43 -38 16 25 42 8 66 -42 21 -47 28 -53 58 -56 31 -3 33 -2
27 20 -4 13 -10 54 -13 91 -4 42 -10 66 -17 64 -15 -5 -25 -50 -13 -64 5 -7 7
-18 4 -25 -3 -9 -7 -6 -13 7 -4 11 -16 31 -26 45 -12 15 -17 33 -13 47 8 33
-20 41 -49 14 l-23 -22 -12 46 c-15 58 -59 155 -71 155 -5 0 -11 -4 -15 -10z
m140 -210 c3 -5 4 -14 0 -20 -8 -13 -35 -1 -35 16 0 16 26 19 35 4z"/>
<path d="M1890 1870 c-8 -5 -33 -10 -55 -11 l-40 -1 47 -8 c25 -5 55 -11 66
-14 25 -8 38 10 22 29 -14 17 -20 18 -40 5z"/>
<path d="M847 1810 c-21 -22 -37 -44 -37 -50 0 -16 -50 -84 -51 -69 -1 8 -2
34 -3 59 -1 37 -4 45 -20 45 -25 0 -53 -83 -30 -92 8 -3 14 -11 14 -19 0 -8 5
-14 10 -14 6 0 10 -9 10 -20 0 -11 -4 -20 -9 -20 -5 0 -11 -10 -14 -22 -6 -21
-7 -21 -25 -4 -16 14 -18 24 -12 52 7 29 6 33 -5 24 -8 -7 -19 -27 -25 -45 -6
-18 -18 -36 -26 -39 -33 -13 -1 -22 72 -20 72 1 101 12 75 28 -14 9 2 49 43
106 19 26 37 61 41 79 7 35 54 68 63 43 2 -6 10 -12 19 -12 28 0 7 25 -24 28
-24 2 -37 -5 -66 -38z"/>
<path d="M2265 1840 c-4 -6 8 -10 30 -10 22 0 34 4 30 10 -3 6 -17 10 -30 10
-13 0 -27 -4 -30 -10z"/>
<path d="M960 1781 c0 -4 -11 -19 -25 -33 -30 -30 -67 -111 -41 -89 9 7 16 18
16 24 0 6 11 22 24 36 23 25 44 71 32 71 -3 0 -6 -4 -6 -9z"/>
<path d="M2304 1690 c-24 -9 -40 -50 -20 -50 13 0 36 22 50 48 8 14 0 14 -30
2z"/>
<path d="M2390 1541 c13 -25 33 -28 28 -4 -2 10 -11 19 -21 21 -16 3 -17 1 -7
-17z"/>
<path d="M735 1530 c-25 -6 -19 -15 8 -11 4 0 7 -8 7 -20 0 -11 -4 -18 -9 -15
-5 4 -7 -3 -4 -15 4 -14 8 -17 13 -9 4 7 12 10 18 6 5 -3 12 1 16 9 3 8 1 17
-5 21 -5 3 -7 14 -4 25 7 20 6 21 -40 9z"/>
<path d="M603 1523 c-22 -4 -33 -23 -14 -23 13 0 34 -85 29 -120 -3 -18 1 -35
9 -42 7 -6 15 -9 17 -7 6 7 -6 199 -13 198 -3 -1 -16 -4 -28 -6z"/>
<path d="M1354 1500 c33 -16 63 -36 68 -44 9 -16 46 -20 85 -10 12 3 27 20 34
38 7 17 15 36 17 41 3 6 -5 0 -17 -12 -11 -12 -21 -27 -21 -32 0 -6 -16 -13
-36 -17 -27 -5 -42 -2 -62 13 -40 30 -89 53 -109 53 -10 -1 9 -14 41 -30z"/>
<path d="M1703 1496 c-6 -12 -7 -32 0 -61 8 -35 15 -44 36 -48 14 -3 29 -3 34
0 12 7 -2 45 -28 73 -12 14 -25 32 -27 40 -4 12 -6 11 -15 -4z"/>
<path d="M1166 1460 c-34 -11 -76 -48 -76 -67 0 -20 16 -16 46 12 54 50 118
40 158 -24 49 -77 36 -179 -26 -206 -22 -9 -28 -15 -18 -18 55 -19 92 -29 94
-25 2 1 13 22 25 45 26 52 36 115 22 139 -9 17 -10 18 -11 2 0 -20 -20 -25
-20 -5 0 6 -3 23 -7 36 -5 20 -3 23 11 18 17 -7 17 -5 -1 24 -10 18 -30 41
-45 52 -30 22 -108 31 -152 17z"/>
<path d="M2090 1455 c-7 -8 -19 -15 -26 -15 -8 0 -14 -4 -14 -10 0 -5 -8 -10
-17 -10 -10 0 -27 -7 -37 -15 -26 -19 -55 -19 -63 0 -4 12 -15 6 -47 -28 -22
-25 -48 -47 -56 -50 -11 -4 -10 -6 4 -6 10 -1 69 22 131 49 62 28 117 50 123
50 17 0 36 30 25 41 -7 7 -14 5 -23 -6z"/>
<path d="M235 1445 c39 -8 88 -16 110 -19 l40 -6 -50 19 c-30 12 -74 19 -110
19 l-60 0 70 -13z"/>
<path d="M853 1395 c0 -33 -3 -70 -7 -82 -5 -14 -3 -23 3 -23 6 0 11 11 11 25
0 14 11 37 25 50 19 20 34 25 75 25 29 0 50 4 50 11 0 12 -103 8 -132 -5 -13
-6 -17 -1 -21 26 -2 18 -4 6 -4 -27z"/>
<path d="M2220 1441 c0 -5 10 -13 22 -17 45 -14 197 -152 198 -179 0 -11 -93
-50 -145 -61 -16 -4 -38 -14 -47 -22 -10 -8 -18 -12 -18 -7 0 4 -6 3 -12 -2
-7 -6 -31 -16 -53 -23 -24 -8 -54 -29 -73 -51 -19 -22 -42 -39 -53 -39 -12 0
-19 -7 -19 -18 0 -38 -28 -60 -82 -64 -72 -6 -188 -31 -188 -40 0 -11 30 -10
152 3 107 11 153 23 144 38 -10 15 24 70 55 88 16 10 29 22 29 29 0 13 26 25
145 69 116 43 201 81 210 95 3 6 29 22 58 36 l51 26 -30 16 c-16 8 -50 34 -75
57 -43 40 -98 75 -116 75 -10 -1 66 -70 76 -70 4 0 26 -19 50 -42 l42 -42 -23
-18 c-13 -10 -28 -18 -33 -18 -6 0 -40 29 -77 64 -36 35 -87 73 -112 86 -25
12 -46 26 -46 31 0 5 -7 9 -15 9 -8 0 -15 -4 -15 -9z"/>
<path d="M85 1390 c3 -5 24 -10 46 -10 24 0 38 4 34 10 -3 6 -24 10 -46 10
-24 0 -38 -4 -34 -10z"/>
<path d="M1216 1382 c-8 -13 4 -72 15 -72 5 0 9 12 9 28 0 32 -15 59 -24 44z"/>
<path d="M2707 1373 c-45 -23 -25 -26 29 -4 35 14 42 20 24 19 -14 0 -38 -7
-53 -15z"/>
<path d="M764 1343 c2 -16 10 -29 20 -31 11 -2 16 -15 17 -38 1 -19 2 -42 3
-51 0 -10 -8 -22 -19 -28 -11 -5 -22 -19 -23 -30 -5 -27 -11 -32 -21 -16 -6
10 -11 5 -16 -17 -11 -52 17 -74 35 -27 10 27 24 32 36 13 4 -7 3 -8 -4 -4 -7
4 -12 1 -12 -8 0 -17 8 -19 50 -17 15 1 20 -1 14 -6 -12 -8 -64 -120 -70 -148
-1 -5 -3 -14 -4 -20 -2 -5 -4 -14 -5 -20 -1 -5 -7 -28 -13 -49 -13 -45 -9 -56
19 -56 21 0 25 10 9 26 -13 13 19 136 55 218 23 52 23 55 6 70 -15 13 -20 37
-24 109 -3 51 -8 101 -10 112 -3 11 -6 26 -6 33 -1 6 -10 12 -20 12 -15 0 -19
-6 -17 -27z"/>
<path d="M329 1311 c-14 -33 -14 -39 -3 -34 18 7 46 58 37 67 -12 12 -18 6
-34 -33z"/>
<path d="M441 1325 c-1 -11 -4 -31 -8 -44 -4 -18 -2 -22 8 -19 16 5 20 34 8
63 -8 20 -8 20 -8 0z"/>
<path d="M1016 1325 c-3 -8 0 -16 7 -17 35 -4 43 -4 50 0 10 5 -23 31 -39 32
-7 0 -14 -7 -18 -15z"/>
<path d="M1723 1310 c-32 -13 -30 -34 2 -26 37 9 75 25 75 31 0 8 -53 5 -77
-5z"/>
<path d="M2620 1296 c-25 -11 -48 -25 -51 -29 -3 -5 -10 -9 -15 -9 -5 0 -20
-7 -34 -14 l-25 -15 25 5 c14 2 35 8 48 11 16 6 22 3 22 -9 0 -13 11 -16 60
-16 49 0 58 3 54 15 -7 18 -9 18 -37 4 l-22 -12 20 23 20 23 -32 -17 c-44 -22
-60 -21 -38 4 10 11 14 20 9 20 -11 0 18 20 29 20 5 0 5 -6 1 -12 -5 -10 -4
-10 6 -1 26 24 3 30 -40 9z"/>
<path d="M1885 1270 c-7 -11 50 -69 68 -70 4 0 7 -9 7 -19 0 -20 17 -37 26
-28 7 7 -68 120 -83 124 -6 2 -14 -1 -18 -7z"/>
<path d="M1034 1226 c6 -29 3 -37 -14 -46 -11 -6 -20 -15 -20 -21 0 -5 14 -2
31 7 32 16 85 12 74 -6 -4 -6 9 -4 27 4 18 8 40 17 49 19 14 5 15 11 5 41 -6
20 -15 36 -20 36 -4 0 -6 -6 -3 -12 20 -56 20 -58 -15 -58 -19 0 -40 6 -46 12
-10 10 -15 10 -23 -2 -8 -11 -9 -8 -5 12 5 21 1 30 -13 38 -30 16 -34 13 -27
-24z"/>
<path d="M2910 1236 c0 -19 -15 -23 -90 -20 -42 1 -58 -1 -45 -6 11 -5 45 -9
75 -10 30 -1 76 -5 103 -9 56 -9 60 -1 12 22 -19 9 -35 21 -35 27 0 5 -4 10
-10 10 -5 0 -10 -6 -10 -14z"/>
<path d="M1449 1211 c-31 -31 -34 -56 -4 -31 11 9 35 11 86 6 124 -11 155 -43
143 -147 -6 -51 -12 -65 -50 -106 -24 -26 -42 -48 -41 -50 2 -1 28 1 58 6 33
6 61 5 72 -1 26 -13 33 -3 18 26 -8 13 -10 33 -6 46 5 16 4 21 -6 18 -8 -3
-15 -14 -17 -26 -2 -12 -10 -22 -19 -22 -10 0 -13 5 -8 18 27 65 31 140 10
197 -5 16 -3 15 14 -5 11 -14 21 -38 22 -55 1 -17 3 -22 6 -12 10 38 23 13 23
-44 0 -54 2 -60 15 -49 8 7 15 25 15 40 0 29 -52 141 -75 160 -23 19 -117 50
-172 56 -49 6 -54 5 -84 -25z"/>
<path d="M627 1212 c-5 -7 -12 -10 -17 -7 -5 3 -11 -4 -15 -15 -3 -11 -11 -20
-16 -20 -6 0 -7 -4 -4 -10 4 -6 -5 -10 -20 -10 -36 0 -27 -24 11 -28 22 -2 26
0 14 7 -13 9 -13 11 3 11 9 0 17 6 17 14 0 8 5 18 12 22 8 5 9 2 5 -9 -3 -10
-2 -17 3 -17 6 0 9 -14 8 -32 -2 -18 2 -33 10 -35 11 -4 18 18 12 42 -1 6 -5
30 -9 55 -4 28 -9 40 -14 32z"/>
<path d="M1457 1158 c-90 -9 -97 -18 -16 -18 58 0 68 -3 91 -27 57 -60 61
-109 13 -183 -42 -64 -43 -73 -10 -58 13 6 22 14 19 19 -2 4 2 11 10 16 14 8
16 12 16 33 0 6 7 10 16 10 13 0 14 3 5 13 -7 9 -7 17 -1 23 6 6 6 22 1 42
-10 34 4 56 20 31 7 -11 9 -9 9 7 0 12 -7 24 -15 28 -9 3 -15 0 -15 -9 0 -24
-14 -17 -35 17 -11 18 -24 39 -30 48 -8 12 -22 14 -78 8z"/>
<path d="M1070 1119 c0 -13 -80 -99 -93 -99 -5 0 -5 10 -2 21 5 15 4 19 -4 15
-17 -11 -13 -34 8 -57 18 -20 19 -20 45 26 15 25 36 51 47 58 21 13 25 32 9
42 -5 3 -10 1 -10 -6z"/>
<path d="M2472 1110 c-14 -23 -66 -51 -142 -75 -89 -28 -170 -67 -170 -81 0
-7 -21 -25 -47 -41 -25 -15 -41 -29 -35 -31 7 -2 24 6 38 17 15 12 31 21 36
21 5 0 19 10 31 21 26 26 116 68 211 99 70 23 106 48 106 75 0 21 -13 19 -28
-5z"/>
<path d="M933 1113 c-13 -2 -23 -11 -23 -19 0 -17 2 -17 35 -2 23 10 36 30 18
27 -5 -1 -18 -4 -30 -6z"/>
<path d="M748 1025 c-21 -18 -28 -33 -28 -59 0 -25 -6 -40 -20 -48 -27 -17
-25 -38 4 -38 20 0 25 7 31 38 3 20 15 57 26 81 11 24 18 45 17 47 -2 1 -15
-8 -30 -21z"/>
<path d="M1386 1041 c-6 -10 -132 -71 -147 -71 -6 0 -8 4 -5 9 3 5 -4 11 -17
15 -24 6 -97 -39 -105 -65 -4 -11 -2 -12 9 -1 14 13 45 16 52 5 2 -5 7 -25 11
-45 l7 -38 -40 0 c-27 0 -43 5 -49 17 -9 15 -10 14 -19 -3 -6 -10 -13 -31 -17
-46 -6 -27 -5 -28 34 -28 33 0 40 3 40 20 0 16 6 20 33 19 77 -2 177 -59 311
-178 77 -68 122 -100 110 -79 -10 18 -87 84 -116 99 -11 6 -17 13 -15 16 6 6
52 -8 142 -42 74 -29 193 -65 210 -65 15 1 -50 28 -145 60 -101 34 -164 60
-158 65 6 6 135 -23 173 -39 19 -8 35 -19 35 -24 0 -5 16 -9 35 -10 19 -1 44
-6 54 -12 25 -13 44 -13 36 0 -4 6 7 10 24 10 31 0 38 -13 22 -39 -5 -8 -16
-11 -25 -8 -8 3 -18 2 -21 -3 -4 -6 2 -11 12 -11 52 -5 109 -3 118 2 6 4 52
10 103 14 52 3 104 9 117 11 13 2 27 -1 31 -7 4 -7 9 -8 13 -1 3 6 25 13 48
17 34 5 42 3 46 -12 4 -17 5 -17 6 1 1 12 6 16 16 13 8 -4 17 -2 20 3 10 15
23 12 28 -7 4 -17 5 -17 6 0 1 22 18 22 24 0 4 -17 5 -17 6 0 1 11 8 17 19 15
13 -2 18 5 20 30 2 17 8 32 13 32 6 0 8 -12 5 -27 -3 -16 -1 -35 5 -43 9 -13
10 -12 5 3 -3 10 0 17 9 17 7 0 16 -8 18 -17 4 -17 5 -17 6 0 1 20 17 23 24 5
3 -7 6 6 6 30 1 27 6 42 14 42 8 0 12 -14 10 -42 -1 -24 0 -36 3 -27 6 19 54
21 66 4 4 -5 8 9 8 33 0 24 5 42 11 42 7 0 9 -11 6 -28 -3 -15 -2 -34 4 -42 6
-11 9 -2 9 28 0 23 4 42 10 42 5 0 9 -16 8 -35 -1 -19 2 -38 5 -42 4 -3 7 1 7
10 0 20 16 23 23 5 3 -8 6 -4 7 7 1 11 3 25 5 30 1 6 3 16 3 23 1 6 7 12 13
12 7 0 8 -11 4 -31 -5 -22 -4 -29 4 -25 6 4 11 18 11 32 0 13 5 24 11 24 7 0
8 -11 4 -29 -3 -17 -2 -32 4 -36 7 -4 11 8 11 34 0 24 5 41 11 41 7 0 9 -12 5
-35 -4 -22 -3 -35 4 -35 5 0 10 16 10 35 0 19 5 35 11 35 7 0 9 -11 6 -28 -3
-15 -2 -34 4 -42 6 -11 9 -2 9 28 0 23 5 42 11 42 6 0 10 -10 9 -22 -4 -47 3
-61 9 -19 5 39 9 45 34 48 29 4 32 1 18 -26 -5 -9 -6 -23 -2 -30 6 -9 11 0 16
26 5 21 9 43 11 50 1 7 -6 10 -19 7 -64 -14 -186 -26 -249 -26 -31 1 -48 -3
-48 -11 0 -7 -7 -3 -15 7 -13 17 -15 18 -15 3 0 -22 -6 -21 -30 3 -12 12 -33
20 -54 20 -44 0 -98 19 -93 34 2 6 25 15 50 20 26 5 47 13 47 16 0 7 -79 -4
-108 -15 -15 -5 -7 -45 11 -57 14 -9 21 -58 8 -58 -5 0 -13 9 -16 20 -3 11
-11 20 -17 20 -6 0 -6 -6 2 -15 7 -9 10 -19 6 -23 -4 -4 -15 3 -24 15 -16 21
-23 22 -86 14 -5 0 -3 -8 4 -16 7 -9 10 -18 6 -22 -3 -4 -13 3 -22 15 -15 22
-47 28 -78 16 -13 -5 -14 -9 -5 -20 7 -8 9 -18 5 -22 -4 -4 -14 2 -22 13 -11
14 -27 20 -60 21 -37 1 -42 -1 -33 -13 9 -10 14 -11 19 -2 8 12 30 4 30 -10 0
-15 -54 -9 -66 8 -7 9 -16 13 -20 8 -4 -4 -2 -7 4 -7 7 0 12 -7 12 -15 0 -21
-18 -19 -25 4 -5 15 -15 19 -55 18 -48 0 -49 -1 -34 -19 12 -13 13 -18 4 -18
-7 0 -19 8 -26 18 -13 16 -14 16 -8 0 7 -22 -14 -24 -22 -3 -4 8 -11 15 -16
15 -6 0 -5 -6 2 -15 17 -20 1 -19 -24 2 -12 10 -15 11 -8 3 19 -22 15 -27 -29
-28 -22 -1 -45 -4 -49 -7 -5 -3 -11 -1 -15 5 -3 5 -21 10 -39 10 -43 0 -105
25 -85 34 8 3 1 4 -14 1 -19 -4 -26 -2 -22 5 4 6 -5 10 -22 10 -41 1 -165 44
-156 55 4 4 0 5 -10 2 -18 -7 -124 18 -140 33 -4 4 20 10 54 13 34 3 66 11 73
17 8 9 4 11 -21 5 -42 -8 -52 10 -10 20 32 8 32 8 5 12 -14 2 -45 -5 -67 -16
-75 -39 -137 -24 -156 37 -9 31 18 72 48 72 13 0 32 6 42 14 10 7 26 11 36 9
10 -3 32 9 56 31 27 25 33 36 21 36 -9 0 -19 -4 -22 -9z m1169 -311 c-3 6 -2
10 2 10 11 0 33 -21 33 -31 0 -13 -44 -6 -62 9 -15 13 -16 11 -6 -22 9 -28 9
-39 -1 -49 -10 -10 -12 -7 -10 13 2 14 -2 35 -9 47 -14 26 0 35 36 22 15 -6
21 -5 17 1z m-509 -51 c5 -8 9 -8 14 1 8 13 30 6 30 -9 0 -14 -58 -10 -64 5
-6 16 10 19 20 3z m420 -15 c-3 -9 -6 -20 -6 -25 0 -5 -4 -9 -10 -9 -5 0 -10
11 -10 25 0 16 6 25 16 25 11 0 14 -5 10 -16z m-175 -37 c-8 -8 -11 -6 -11 6
0 9 -4 17 -10 17 -5 0 -10 -9 -10 -20 0 -11 -4 -20 -10 -20 -5 0 -10 11 -10
24 0 19 6 25 28 28 29 3 42 -16 23 -35z m75 27 c-3 -9 -6 -20 -6 -25 0 -6 -4
-7 -10 -4 -16 10 -12 45 6 45 11 0 14 -5 10 -16z m-166 -13 c0 -23 -16 -36
-25 -21 -9 14 1 40 15 40 5 0 10 -9 10 -19z m-140 -21 c0 -16 -4 -30 -10 -30
-5 0 -10 14 -10 30 0 17 5 30 10 30 6 0 10 -13 10 -30z m40 21 c0 -20 -13 -41
-21 -35 -15 9 -10 44 6 44 8 0 15 -4 15 -9z m-142 -31 c-1 -16 -7 -30 -13 -30
-7 0 -10 12 -7 30 2 17 8 30 13 30 5 0 8 -13 7 -30z m70 5 c-1 -14 -7 -25 -13
-25 -6 0 -12 11 -13 25 -1 16 3 25 13 25 10 0 14 -9 13 -25z"/>
<path d="M230 1024 c-8 -1 -63 -6 -122 -9 -70 -5 -106 -11 -102 -17 5 -7 46
-8 121 -4 107 6 114 5 111 -11 -4 -23 -89 -35 -162 -23 -39 6 -54 5 -66 -6
-12 -12 -10 -14 20 -15 139 -6 350 0 350 9 0 4 -25 8 -55 8 -65 1 -86 14 -67
44 19 31 15 34 -28 24z"/>
<path d="M2500 1000 c0 -14 45 -30 78 -29 24 1 22 3 -10 12 -21 6 -38 14 -38
19 0 4 -7 8 -15 8 -8 0 -15 -5 -15 -10z"/>
<path d="M923 974 c-13 -14 -23 -29 -23 -35 0 -5 -8 -24 -17 -42 -9 -18 -16
-36 -15 -40 2 -5 -7 -11 -18 -14 -11 -3 -18 -9 -15 -13 2 -4 -7 -5 -20 -2 -28
5 -34 -12 -9 -22 34 -13 55 6 95 90 33 71 43 83 55 73 11 -9 14 -8 14 10 0 27
-19 25 -47 -5z"/>
<path d="M2107 967 c-4 -11 -193 -128 -230 -142 -9 -4 -17 -13 -17 -21 0 -11
9 -10 42 7 24 12 47 27 53 34 14 16 160 105 174 105 16 0 14 17 -3 23 -8 3
-16 0 -19 -6z"/>
<path d="M848 938 c-4 -10 -15 -18 -25 -18 -17 -1 -17 -1 0 -11 9 -5 17 -22
17 -37 1 -23 2 -25 11 -9 6 9 9 34 7 55 -2 26 -5 32 -10 20z"/>
<path d="M960 939 c-24 -10 -24 -11 -7 -24 14 -10 17 -22 13 -47 -15 -105 -17
-133 -7 -118 6 8 11 23 11 33 0 11 9 21 20 24 13 4 17 9 12 17 -13 16 -22 57
-11 50 5 -3 9 2 9 10 0 8 -4 17 -9 20 -5 3 -7 15 -4 26 6 23 7 22 -27 9z"/>
<path d="M2430 919 c-19 -11 -52 -22 -73 -26 -21 -3 -41 -12 -44 -20 -9 -24 3
-25 48 -4 78 35 121 51 140 51 11 0 19 5 19 10 0 16 -52 9 -90 -11z"/>
<path d="M2237 924 c-3 -3 -3 -12 0 -20 3 -9 -2 -14 -18 -15 -13 0 -19 -3 -13
-5 6 -2 28 0 50 5 21 5 31 9 22 10 -10 1 -18 8 -18 16 0 15 -12 20 -23 9z"/>
<path d="M290 903 c0 -11 21 -33 31 -33 4 0 6 8 5 18 -3 17 -36 31 -36 15z"/>
<path d="M428 880 c19 -22 35 -30 59 -30 18 0 33 5 33 10 0 6 -16 10 -35 10
-24 0 -37 6 -45 20 -6 11 -17 20 -24 20 -9 0 -5 -11 12 -30z"/>
<path d="M47 894 c-3 -4 1 -17 9 -29 12 -19 23 -23 62 -22 26 0 39 3 30 5 -10
2 -18 8 -18 13 0 14 -28 11 -33 -3 -4 -10 -8 -9 -16 2 -8 12 -5 16 14 18 14 2
23 8 20 13 -7 10 -58 12 -68 3z"/>
<path d="M130 886 c0 -8 5 -18 10 -21 6 -3 10 1 10 9 0 21 9 20 33 -1 11 -10
17 -13 14 -6 -11 19 12 26 29 9 8 -9 21 -16 29 -16 7 0 15 -9 18 -20 3 -11 12
-20 21 -20 13 0 11 8 -10 40 -26 40 -27 40 -90 40 -49 0 -64 -3 -64 -14z"/>
<path d="M3 862 c1 -19 8 -32 15 -32 9 0 11 7 7 23 -12 37 -25 43 -22 9z"/>
<path d="M534 871 c13 -20 -7 -41 -37 -41 -23 0 -28 -3 -20 -11 8 -8 20 -9 42
-1 27 9 32 8 41 -9 6 -10 18 -19 26 -19 8 0 12 -4 9 -10 -9 -15 -43 -12 -47 3
-2 9 -11 11 -28 6 l-25 -7 25 -2 c23 -1 23 -2 5 -10 -18 -8 -18 -9 -2 -9 10
-1 15 -5 12 -11 -3 -5 -1 -10 4 -10 6 0 10 -4 9 -9 -2 -5 21 -44 51 -86 l55
-76 63 7 c44 4 63 3 63 -5 0 -7 -21 -11 -55 -11 -30 0 -55 -3 -55 -7 0 -5 31
-8 70 -8 38 0 70 3 70 7 0 4 -15 23 -34 42 -18 20 -31 36 -29 36 2 0 -5 14
-17 30 -23 32 -40 32 -40 -1 0 -15 -7 -19 -39 -19 -31 0 -42 5 -57 28 -16 24
-16 25 -1 13 19 -15 33 -9 22 9 -4 7 -15 10 -25 7 -10 -2 -22 4 -30 17 -12 18
-11 19 2 8 12 -10 21 -9 44 3 l29 15 -37 0 c-21 0 -38 5 -38 11 0 6 9 8 20 4
11 -4 20 -2 20 4 0 6 5 11 11 11 5 0 7 -4 4 -10 -3 -5 3 -10 15 -10 14 0 19 4
14 13 -16 26 -98 117 -106 117 -5 0 -7 -4 -4 -9z m191 -251 c-3 -5 -26 -10
-51 -10 -24 0 -44 5 -44 10 0 6 23 10 51 10 31 0 48 -4 44 -10z m30 -25 c-26
-9 -105 -12 -105 -4 0 5 26 9 58 8 31 0 53 -2 47 -4z"/>
<path d="M320 855 c0 -5 18 -38 40 -74 l39 -66 56 3 c73 5 71 17 -2 15 -49 -1
-53 0 -23 6 l35 8 -35 2 c-31 1 -39 8 -72 58 -21 31 -38 52 -38 48z"/>
<path d="M180 831 c-8 -6 -18 -7 -24 -4 -5 3 -6 1 -2 -6 4 -7 17 -11 29 -9 16
2 26 -8 45 -44 27 -52 34 -54 107 -38 37 9 36 9 -13 4 -29 -3 -58 -1 -65 3 -7
5 11 10 43 14 l55 6 -60 3 -60 3 45 7 45 7 -47 1 c-42 2 -47 5 -57 32 -11 32
-17 35 -41 21z"/>
<path d="M80 785 c0 -2 5 -16 12 -30 12 -26 32 -36 22 -11 -4 11 6 16 43 19
l48 3 -60 4 -60 3 50 7 50 7 -52 1 c-29 1 -53 0 -53 -3z"/>
<path d="M2595 770 c17 -11 44 -19 60 -19 l30 1 -33 8 c-19 4 -39 13 -45 19
-6 6 -18 11 -26 11 -10 0 -4 -8 14 -20z"/>
<path d="M420 770 c-21 -7 -19 -8 18 -9 23 -1 42 4 42 9 0 12 -24 12 -60 0z"/>
<path d="M2215 770 c17 -4 41 -8 55 -8 23 -1 23 0 5 8 -11 5 -36 8 -55 8 l-35
0 30 -8z"/>
<path d="M923 750 c-4 -16 -14 -20 -44 -20 -21 0 -41 -4 -44 -10 -4 -6 16 -10
53 -10 l59 0 -5 30 c-5 35 -12 38 -19 10z"/>
<path d="M1043 740 c-10 -26 -16 -30 -47 -30 -20 0 -36 -4 -36 -9 0 -10 134
-23 165 -17 11 3 48 5 83 5 37 1 62 5 62 12 0 6 -22 10 -57 9 -127 -3 -135 -2
-131 23 2 14 9 21 21 21 9 -1 17 2 17 7 0 5 -15 9 -33 9 -27 0 -35 -5 -44 -30z"/>
<path d="M1329 702 l45 -39 -109 -6 c-59 -4 -142 -7 -183 -7 -42 0 -73 -3 -69
-6 3 -4 100 -3 214 2 114 4 199 10 187 11 -11 2 -42 22 -68 43 -62 51 -75 52
-17 2z"/>
<path d="M150 720 l-45 -7 50 -1 c28 -1 57 3 65 8 18 11 3 11 -70 0z"/>
<path d="M318 713 l-58 -4 15 -29 c14 -26 21 -30 58 -29 23 0 51 4 62 9 12 5
-4 7 -42 3 -44 -4 -63 -2 -63 6 0 7 22 12 58 13 l57 1 -65 7 -65 7 53 1 c28 1
52 7 52 12 0 6 -1 9 -2 8 -2 -1 -29 -3 -60 -5z"/>
<path d="M30 700 l-35 -7 42 -2 c23 0 45 4 48 9 7 11 -3 11 -55 0z"/>
<path d="M410 701 c0 -25 31 -33 87 -23 l58 11 -62 -6 c-41 -3 -63 -1 -63 5 0
6 24 13 53 15 l52 3 -62 2 c-35 1 -63 -2 -63 -7z"/>
<path d="M120 693 c0 -5 4 -14 9 -22 7 -10 21 -11 72 -2 l64 10 -62 -4 c-36
-3 -63 -1 -63 5 0 5 26 11 58 13 l57 3 -67 2 c-38 1 -68 -1 -68 -5z"/>
<path d="M28 673 c18 -2 45 -2 60 0 15 2 0 4 -33 4 -33 0 -45 -2 -27 -4z"/>
<path d="M549 665 c-3 -2 -28 -5 -56 -6 -47 -2 -51 -4 -42 -21 7 -13 21 -18
57 -18 26 0 54 5 62 10 10 7 -5 8 -47 3 -43 -4 -63 -2 -63 5 0 6 24 12 58 14
31 2 52 6 46 10 -6 4 -13 6 -15 3z"/>
<path d="M35 650 l-40 -7 40 -1 c22 0 51 4 65 8 l25 8 -25 0 c-14 -1 -43 -4
-65 -8z"/>
<path d="M153 618 l13 -33 65 3 c86 5 88 12 3 13 l-69 1 54 9 c76 13 79 22 3
13 -42 -4 -62 -3 -62 4 0 6 25 13 58 15 l57 3 -68 2 -67 2 13 -32z"/>
<path d="M300 637 c0 -5 12 -29 28 -55 15 -26 32 -56 37 -67 9 -16 22 -21 73
-23 38 -2 62 1 62 7 0 7 -21 9 -55 7 -55 -4 -85 10 -70 34 3 5 -1 10 -9 10
-34 0 -14 20 22 22 l37 1 -35 4 c-64 7 -66 17 -5 23 l60 7 -59 1 c-43 2 -62 7
-72 20 -7 9 -14 13 -14 9z"/>
<path d="M0 622 c0 -4 21 -6 48 -4 82 5 89 9 20 11 -38 0 -68 -2 -68 -7z"/>
<path d="M876 584 c20 -24 40 -44 44 -44 5 0 16 -7 24 -16 9 -8 16 -11 16 -6
0 16 -79 99 -100 105 -16 4 -13 -3 16 -39z"/>
<path d="M68 603 c-59 -4 -64 -8 -50 -31 7 -10 23 -11 73 -3 l64 10 -62 -2
c-34 -1 -65 1 -69 6 -4 4 16 7 44 7 28 0 54 5 57 10 3 6 5 9 3 8 -2 -1 -29 -3
-60 -5z"/>
<path d="M477 598 c5 -10 58 -8 98 2 22 6 13 8 -37 7 -36 -1 -64 -5 -61 -9z"/>
<path d="M2825 593 c-121 -11 -263 -53 -348 -103 -29 -17 -36 -27 -35 -53 0
-18 7 -44 14 -59 8 -15 14 -38 14 -51 0 -13 10 -33 23 -44 38 -34 87 -65 87
-55 0 6 -15 19 -33 29 -25 16 -35 30 -46 71 -7 29 -17 54 -22 58 -5 3 -9 21
-9 40 0 33 3 36 68 65 83 38 185 65 277 73 123 11 155 17 155 27 0 9 -61 10
-145 2z"/>
<path d="M497 570 c4 -4 35 -4 68 0 l60 8 -68 -1 c-37 0 -64 -3 -60 -7z"/>
<path d="M180 563 c1 -4 9 -24 18 -43 17 -34 19 -35 80 -38 34 -2 62 1 62 6 0
5 -28 8 -62 8 -61 -1 -61 -1 -70 31 -7 29 -29 56 -28 36z"/>
<path d="M565 550 c-33 -3 -55 -7 -50 -10 6 -3 37 -3 70 0 33 3 56 7 50 10 -5
3 -37 3 -70 0z"/>
<path d="M780 532 c-100 -8 -105 -29 -6 -24 36 2 66 7 66 12 0 12 -20 16 -60
12z"/>
<path d="M1127 520 c-64 -4 -120 -10 -124 -14 -8 -8 236 2 357 14 l75 7 -95 0
c-52 0 -148 -3 -213 -7z"/>
<path d="M539 506 c11 -14 134 -8 125 5 -3 6 -35 9 -70 8 -45 -2 -61 -5 -55
-13z"/>
<path d="M50 478 c0 -5 29 -8 65 -8 36 0 65 4 65 10 0 6 -27 9 -65 7 -36 -1
-65 -5 -65 -9z"/>
<path d="M1460 459 c-105 -18 -293 -31 -960 -69 -195 -11 -366 -21 -380 -23
-21 -2 -26 3 -28 26 -3 28 -10 31 -61 21 -44 -9 -41 -34 5 -34 21 0 33 -4 29
-10 -3 -6 -19 -10 -36 -10 -20 0 -29 -5 -29 -17 0 -15 13 -15 143 -8 78 5 197
9 264 9 68 1 123 4 123 8 0 4 21 6 48 6 26 -1 81 2 122 6 41 4 134 9 205 11
72 2 159 6 195 9 36 4 124 11 196 16 72 5 143 14 158 19 14 6 26 7 26 2 0 -5
15 -11 33 -14 17 -3 46 -8 62 -11 17 -3 22 -3 12 0 -11 4 -16 12 -13 20 3 8
-1 17 -9 21 -12 4 -13 8 -4 19 7 8 10 16 8 17 -2 2 -51 -5 -109 -14z"/>
<path d="M500 430 c-27 -9 -24 -11 15 -13 14 -1 25 3 26 8 1 13 -11 14 -41 5z"/>
<path d="M319 420 c-39 -9 -8 -16 41 -9 25 3 43 7 40 8 -12 6 -59 6 -81 1z"/>
<path d="M2483 184 c3 -3 21 -9 40 -14 28 -6 34 -5 30 6 -3 8 -20 14 -41 14
-19 0 -33 -3 -29 -6z"/>
<path d="M2237 160 c7 -25 23 -36 23 -16 0 9 6 16 13 16 8 0 7 4 -3 10 -25 16
-39 12 -33 -10z"/>
<path d="M2396 152 c-3 -5 3 -17 14 -27 11 -10 21 -16 23 -14 1 2 10 13 19 24
17 20 17 21 -17 23 -18 1 -36 -1 -39 -6z"/>
<path d="M2500 100 c0 -13 12 -17 70 -24 44 -5 44 -5 15 8 -47 21 -85 28 -85
16z"/>
<path d="M2394 55 c-9 -24 5 -35 44 -34 34 0 35 1 15 11 -13 6 -23 14 -23 18
0 15 -31 19 -36 5z"/>
</g>
</svg>
